Coordinates
version=1
nRows=14
nColumns=24
inDegrees=yes

Units are S.I. units (second, meters, Newtons, ...)
Angles are in degrees.

endheader
time	pelvis_tilt	pelvis_list	pelvis_rotation	pelvis_tx	pelvis_ty	pelvis_tz	hip_flexion_r	hip_adduction_r	hip_rotation_r	knee_angle_r	ankle_angle_r	subtalar_angle_r	mtp_angle_r	hip_flexion_l	hip_adduction_l	hip_rotation_l	knee_angle_l	ankle_angle_l	subtalar_angle_l	mtp_angle_l	lumbar_extension	lumbar_bending	lumbar_rotation
      0.91233333	      1.19673664	     -3.13970557	     -1.63891665	     -0.16805367	      0.98728708	      0.30820167	    -13.14869014	      7.69888970	      1.56839676	    -10.30421832	     12.89042981	     -8.95781736	     -5.49611270	     24.61486333	     -1.58843691	     -2.82673883	    -13.04805467	     -0.08458179	     -3.21725641	     -0.92817034	     -2.84541898	      6.71376512	      7.06973363
      0.91650000	      1.17003333	     -3.08090292	     -1.64139836	     -0.16220040	      0.98675137	      0.30792660	    -13.12425850	      7.61760392	      1.55941086	    -10.99210155	     12.92273868	     -9.04535075	     -5.47788903	     24.48733917	     -1.44834573	     -2.80762741	    -13.05864952	     -0.31728131	     -3.21013553	     -0.84963905	     -2.77019229	      6.62626174	      7.06925911
      0.92066667	      1.07746300	     -3.01340897	     -1.65852784	     -0.15635939	      0.98618375	      0.30760533	    -12.97361400	      7.51969192	      1.56044744	    -11.79439403	     13.07928870	     -8.99074604	     -5.40689319	     24.39280700	     -1.27972806	     -2.62825678	    -13.05176871	     -0.61961841	     -3.46311301	     -0.60468547	     -2.61904463	      6.56605127	      7.11425669
      0.92483333	      1.01904974	     -2.92886977	     -1.64826234	     -0.15046828	      0.98569752	      0.30730829	    -12.85274435	      7.41461880	      1.54971958	    -12.60077715	     13.09728645	     -9.07440155	     -5.35992272	     24.29789884	     -1.10579100	     -2.55205266	    -13.17381118	     -0.92156881	     -3.55296227	     -0.45985076	     -2.50665253	      6.43941004	      7.10979658
      0.92900000	      0.97582309	     -2.81705595	     -1.63046540	     -0.14453883	      0.98529585	      0.30690863	    -12.68589918	      7.25325137	      1.36446718	    -13.51114108	     13.04017003	     -8.75728397	     -4.88602445	     24.12411760	     -0.87133967	     -2.30735599	    -13.21575490	     -1.32898815	     -3.98408557	      0.78473006	     -2.39673324	      6.31862003	      7.10271730
      0.93316667	      0.87211653	     -2.76669939	     -1.63762679	     -0.13866937	      0.98484685	      0.30664887	    -12.44786084	      7.19445608	      1.46376529	    -14.45173320	     13.09564947	     -9.01233637	     -4.81819384	     24.09168895	     -0.74658634	     -2.22270265	    -13.45738453	     -1.60953673	     -4.08434786	      0.91382013	     -2.23358045	      6.24984433	      7.09522937
      0.93733333	      0.79472742	     -2.67374023	     -1.62603102	     -0.13273715	      0.98451172	      0.30633059	    -12.20764621	      7.08099845	      1.46915724	    -15.43248080	     12.99233842	     -9.14772182	     -4.73538780	     23.99904086	     -0.56103184	     -2.07533341	    -13.67281362	     -1.94620899	     -4.32310553	      1.05285930	     -2.09130373	      6.13421790	      7.08463846
      0.94150000	      0.69229486	     -2.60187356	     -1.61403944	     -0.12682848	      0.98418659	      0.30597126	    -11.88260550	      6.98125160	      1.42989905	    -16.51370575	     12.88017706	     -9.16556155	     -4.58335898	     23.91460877	     -0.38572470	     -1.83660906	    -13.87479794	     -2.30183405	     -4.71182282	      1.26644805	     -1.90271431	      6.06236853	      7.05312514
      0.94566667	      0.63146541	     -2.50012185	     -1.57372823	     -0.12091264	      0.98394032	      0.30557302	    -11.56868366	      6.84478221	      1.31340584	    -17.64213994	     12.70186757	     -9.07260805	     -4.27203573	     23.81500501	     -0.17376101	     -1.62623719	    -14.15858679	     -2.66834816	     -5.17229726	      1.63613737	     -1.79075945	      5.93490718	      7.00145553
      0.94983333	      0.58908671	     -2.36759762	     -1.54058613	     -0.11493641	      0.98377658	      0.30519032	    -11.23099642	      6.66093293	      1.14021508	    -18.84223291	     12.43918849	     -9.00073233	     -0.60146596	     23.67722340	      0.04993164	     -1.49882047	    -14.42738971	     -3.00790329	     -5.41367325	      5.14521601	     -1.67441204	      5.76647490	      6.95551168
      0.95400000	      0.50069253	     -2.26640528	     -1.50986920	     -0.10900968	      0.98363351	      0.30482182	    -10.82708762	      6.53232094	      1.10338267	    -20.05426959	     12.05018150	     -9.12867141	     -0.51148183	     23.59419553	      0.24687744	     -1.30389253	    -14.72532291	     -3.33681227	     -5.81632009	      5.12379028	     -1.51354556	      5.64359395	      6.88958727
      0.95816667	      0.43072876	     -2.13807665	     -1.46373787	     -0.10307788	      0.98353497	      0.30440534	    -10.38255051	      6.35778733	      0.96024591	    -21.37005728	     11.66942826	     -9.07599126	     -0.35411354	     23.48939769	      0.47695412	     -1.10336732	    -15.03189964	     -3.61256863	     -6.20145517	      5.11496108	     -1.37417955	      5.48322579	      6.80710582
      0.96233333	      0.36216657	     -2.00153076	     -1.41486566	     -0.09714996	      0.98348577	      0.30397418	     -9.89580236	      6.16477557	      0.78496384	    -22.74477623	     11.19823181	     -8.99923898	     -0.14733488	     23.38354451	      0.71256064	     -0.91406780	    -15.35309684	     -3.84009648	     -6.55692014	      5.11364552	     -1.22875998	      5.31755823	      6.71904052
      0.96650000	      0.34748655	     -1.82058377	     -1.36046548	     -0.09122275	      0.98354207	      0.30350182	     -9.42246215	      5.89879515	      0.53089664	    -24.17202176	     10.57986432	     -8.85562733	      4.96603827	     23.21711403	      0.99513388	     -0.75133580	    -15.67986043	     -4.01422758	     -6.91558168	      5.17303783	     -1.16471996	      5.09199757	      6.63600300
